<svg width="63" height="63" viewBox="0 0 63 63" fill="none" xmlns="http://www.w3.org/2000/svg">
<path d="M31.5 5.25C28.9041 5.25 26.3665 6.01977 24.2081 7.46196C22.0497 8.90415 20.3675 10.954 19.3741 13.3523C18.3807 15.7506 18.1208 18.3896 18.6272 20.9356C19.1336 23.4816 20.3837 25.8202 22.2192 27.6558C24.0548 29.4913 26.3934 30.7414 28.9394 31.2478C31.4854 31.7542 34.1244 31.4943 36.5227 30.5009C38.921 29.5075 40.9708 27.8253 42.413 25.6669C43.8552 23.5085 44.625 20.9709 44.625 18.375C44.625 14.894 43.2422 11.5556 40.7808 9.09422C38.3194 6.63281 34.981 5.25 31.5 5.25ZM31.5 26.25C29.9425 26.25 28.4199 25.7881 27.1249 24.9228C25.8298 24.0575 24.8205 22.8276 24.2244 21.3886C23.6284 19.9497 23.4725 18.3663 23.7763 16.8387C24.0802 15.3111 24.8302 13.9079 25.9315 12.8065C27.0329 11.7052 28.4361 10.9552 29.9637 10.6513C31.4913 10.3475 33.0747 10.5034 34.5136 11.0994C35.9526 11.6955 37.1825 12.7048 38.0478 13.9999C38.9131 15.2949 39.375 16.8175 39.375 18.375C39.375 20.4636 38.5453 22.4666 37.0685 23.9435C35.5916 25.4203 33.5886 26.25 31.5 26.25ZM55.125 55.125V52.5C55.125 47.6266 53.1891 42.9529 49.7431 39.5069C46.2971 36.0609 41.6234 34.125 36.75 34.125H26.25C21.3766 34.125 16.7029 36.0609 13.2569 39.5069C9.81093 42.9529 7.875 47.6266 7.875 52.5V55.125H13.125V52.5C13.125 49.019 14.5078 45.6806 16.9692 43.2192C19.4306 40.7578 22.769 39.375 26.25 39.375H36.75C40.231 39.375 43.5694 40.7578 46.0308 43.2192C48.4922 45.6806 49.875 49.019 49.875 52.5V55.125H55.125Z" fill="#FBFBFB"/>
</svg>
