<svg width="63" height="63" viewBox="0 0 63 63" fill="none" xmlns="http://www.w3.org/2000/svg">
<path d="M10.5 55.125H13.125V21H10.5C9.10761 21 7.77226 21.5531 6.78769 22.5377C5.80312 23.5223 5.25 24.8576 5.25 26.25V49.875C5.25 51.2674 5.80312 52.6027 6.78769 53.5873C7.77226 54.5719 9.10761 55.125 10.5 55.125ZM52.5 21H34.125L37.0702 12.159C37.333 11.37 37.4046 10.5298 37.2791 9.70766C37.1536 8.88553 36.8346 8.10499 36.3483 7.43031C35.862 6.75564 35.2225 6.20614 34.4822 5.82707C33.742 5.448 32.9223 5.25022 32.0906 5.25H31.5L18.375 19.5248V55.125H47.25L57.519 32.5605L57.75 31.5V26.25C57.75 24.8576 57.1969 23.5223 56.2123 22.5377C55.2277 21.5531 53.8924 21 52.5 21Z" fill="#FBFBFB"/>
</svg>
